<svg width="17" height="17" viewBox="0 0 17 17" fill="none" xmlns="http://www.w3.org/2000/svg">
<path d="M8.49974 10.75C9.81775 10.75 10.8862 9.74264 10.8862 8.5C10.8862 7.25736 9.81775 6.25 8.49974 6.25C7.18174 6.25 6.11328 7.25736 6.11328 8.5C6.11328 9.74264 7.18174 10.75 8.49974 10.75Z" stroke="#96B8BD" stroke-width="1.25"/>
<path d="M1.86643 7.48C2.2427 7.702 2.48453 8.0815 2.48453 8.5C2.48453 8.9185 2.2427 9.298 1.86643 9.52C1.61108 9.67225 1.44562 9.793 1.32868 9.937C1.20148 10.0933 1.10818 10.2718 1.05413 10.4621C1.00008 10.6524 0.986334 10.8509 1.01367 11.0463C1.05504 11.3418 1.24038 11.6448 1.61029 12.25C1.98178 12.8552 2.16713 13.1575 2.41771 13.3397C2.58351 13.4597 2.77276 13.5476 2.97463 13.5986C3.1765 13.6496 3.38704 13.6625 3.59423 13.6368C3.78515 13.6128 3.97845 13.5393 4.24573 13.4058C4.43709 13.3073 4.65181 13.2561 4.86982 13.2572C5.08783 13.2582 5.30199 13.3114 5.49226 13.4117C5.87648 13.6217 6.10479 14.008 6.1207 14.4265C6.13183 14.7115 6.16047 14.9065 6.23445 15.0737C6.31441 15.2559 6.43165 15.4213 6.57947 15.5607C6.7273 15.7001 6.90281 15.8106 7.09597 15.886C7.38791 16 7.75861 16 8.5 16C9.24139 16 9.61209 16 9.90403 15.886C10.0972 15.8106 10.2727 15.7001 10.4205 15.5607C10.5683 15.4213 10.6856 15.2559 10.7655 15.0737C10.8387 14.9065 10.8682 14.7115 10.8793 14.4265C10.8952 14.008 11.1235 13.621 11.5077 13.4117C11.698 13.3114 11.9122 13.2582 12.1302 13.2572C12.3482 13.2561 12.5629 13.3073 12.7543 13.4058C13.0215 13.5393 13.2156 13.6128 13.4066 13.6368C13.8247 13.6886 14.2476 13.5818 14.5823 13.3397C14.8329 13.1582 15.0182 12.8552 15.3889 12.25C15.5544 11.98 15.6825 11.7708 15.7779 11.5953M15.1336 9.52075C14.9475 9.41387 14.7932 9.26424 14.6851 9.08586C14.577 8.90748 14.5186 8.70617 14.5155 8.50075C14.5155 8.0815 14.7573 7.702 15.1336 7.47925C15.3889 7.32775 15.5536 7.207 15.6713 7.063C15.7985 6.90667 15.8918 6.72825 15.9459 6.53792C15.9999 6.34759 16.0137 6.14909 15.9863 5.95375C15.945 5.65825 15.7596 5.35525 15.3897 4.75C15.0182 4.14475 14.8329 3.8425 14.5823 3.66025C14.4165 3.54032 14.2272 3.45236 14.0254 3.4014C13.8235 3.35044 13.613 3.33748 13.4058 3.36325C13.2149 3.38725 13.0215 3.46075 12.7535 3.59425C12.5622 3.69261 12.3476 3.74365 12.1298 3.7426C11.9119 3.74155 11.6979 3.68844 11.5077 3.58825C11.3205 3.48302 11.1647 3.33473 11.0548 3.15727C10.9448 2.9798 10.8845 2.77895 10.8793 2.5735C10.8682 2.2885 10.8395 2.0935 10.7655 1.92625C10.6856 1.74414 10.5683 1.57866 10.4205 1.43929C10.2727 1.29992 10.0972 1.18938 9.90403 1.114C9.61209 1 9.24139 1 8.5 1C7.75861 1 7.38791 1 7.09597 1.114C6.90281 1.18938 6.7273 1.29992 6.57947 1.43929C6.43165 1.57866 6.31441 1.74414 6.23445 1.92625C6.16127 2.0935 6.13183 2.2885 6.1207 2.5735C6.11552 2.77895 6.05515 2.9798 5.94525 3.15727C5.83534 3.33473 5.67949 3.48302 5.49226 3.58825C5.30199 3.68858 5.08783 3.74175 4.86982 3.7428C4.65181 3.74385 4.43709 3.69274 4.24573 3.59425C3.97845 3.46075 3.78435 3.38725 3.59344 3.36325C3.17526 3.3114 2.75237 3.41823 2.41771 3.66025C2.16792 3.8425 1.98178 4.14475 1.61108 4.75C1.44562 5.02 1.31755 5.22925 1.22209 5.40475" stroke="#96B8BD" stroke-width="1.25" stroke-linecap="round"/>
</svg>
