<svg width="100" height="80" viewBox="0 0 100 80" fill="none" xmlns="http://www.w3.org/2000/svg">
<path d="M17.2538 64.12C16.7072 64.12 16.2272 64.02 15.8138 63.82C15.4072 63.62 15.0572 63.3367 14.7638 62.97L15.5338 62.26C15.7472 62.5333 15.9905 62.7433 16.2638 62.89C16.5438 63.0367 16.8738 63.11 17.2538 63.11C17.7138 63.11 18.0672 63.0233 18.3138 62.85C18.5605 62.6767 18.6838 62.4133 18.6838 62.06V61.95C18.6838 61.63 18.5805 61.3833 18.3738 61.21C18.1672 61.0367 17.8438 60.95 17.4038 60.95H16.2838V59.95H17.3438C17.7572 59.95 18.0605 59.8667 18.2538 59.7C18.4472 59.5267 18.5438 59.27 18.5438 58.93V58.83C18.5438 58.53 18.4405 58.3033 18.2338 58.15C18.0338 57.99 17.7272 57.91 17.3138 57.91C16.9538 57.91 16.6405 57.9767 16.3738 58.11C16.1138 58.2367 15.9005 58.41 15.7338 58.63L14.9638 57.98C15.2372 57.64 15.5638 57.3767 15.9438 57.19C16.3238 56.9967 16.7805 56.9 17.3138 56.9C18.1005 56.9 18.7005 57.07 19.1138 57.41C19.5338 57.75 19.7438 58.2067 19.7438 58.78C19.7438 59.26 19.6138 59.6267 19.3538 59.88C19.1005 60.1333 18.7705 60.2933 18.3638 60.36V60.41C18.5638 60.43 18.7538 60.4767 18.9338 60.55C19.1205 60.6233 19.2838 60.7267 19.4238 60.86C19.5638 60.9867 19.6738 61.1467 19.7538 61.34C19.8405 61.5267 19.8838 61.75 19.8838 62.01C19.8838 62.3233 19.8238 62.61 19.7038 62.87C19.5838 63.13 19.4105 63.3533 19.1838 63.54C18.9572 63.7267 18.6805 63.87 18.3538 63.97C18.0272 64.07 17.6605 64.12 17.2538 64.12ZM25.0002 64C24.7135 64 24.4935 63.92 24.3402 63.76C24.1868 63.5933 24.0935 63.3833 24.0602 63.13H24.0102C23.9102 63.4567 23.7268 63.7033 23.4602 63.87C23.1935 64.0367 22.8702 64.12 22.4902 64.12C21.9502 64.12 21.5335 63.98 21.2402 63.7C20.9535 63.42 20.8102 63.0433 20.8102 62.57C20.8102 62.05 20.9968 61.66 21.3702 61.4C21.7502 61.14 22.3035 61.01 23.0302 61.01H23.9702V60.57C23.9702 60.25 23.8835 60.0033 23.7102 59.83C23.5368 59.6567 23.2668 59.57 22.9002 59.57C22.5935 59.57 22.3435 59.6367 22.1502 59.77C21.9568 59.9033 21.7935 60.0733 21.6602 60.28L21.0102 59.69C21.1835 59.3967 21.4268 59.1567 21.7402 58.97C22.0535 58.7767 22.4635 58.68 22.9702 58.68C23.6435 58.68 24.1602 58.8367 24.5202 59.15C24.8802 59.4633 25.0602 59.9133 25.0602 60.5V63.11H25.6102V64H25.0002ZM22.8002 63.29C23.1402 63.29 23.4202 63.2167 23.6402 63.07C23.8602 62.9167 23.9702 62.7133 23.9702 62.46V61.71H23.0502C22.2968 61.71 21.9202 61.9433 21.9202 62.41V62.59C21.9202 62.8233 21.9968 63 22.1502 63.12C22.3102 63.2333 22.5268 63.29 22.8002 63.29ZM26.6784 58.8H29.4484C29.8951 58.8 30.2384 58.92 30.4784 59.16C30.7251 59.4 30.8484 59.72 30.8484 60.12C30.8484 60.7733 30.4984 61.1433 29.7984 61.23V61.28C30.2184 61.3133 30.5284 61.4367 30.7284 61.65C30.9351 61.8567 31.0384 62.13 31.0384 62.47C31.0384 62.69 31.0018 62.8933 30.9284 63.08C30.8618 63.2667 30.7618 63.43 30.6284 63.57C30.5018 63.7033 30.3451 63.81 30.1584 63.89C29.9718 63.9633 29.7618 64 29.5284 64H26.6784V58.8ZM29.2784 63.17C29.4718 63.17 29.6251 63.12 29.7384 63.02C29.8518 62.92 29.9084 62.7733 29.9084 62.58V62.31C29.9084 62.1167 29.8518 61.97 29.7384 61.87C29.6251 61.7633 29.4718 61.71 29.2784 61.71H27.7484V63.17H29.2784ZM29.1384 60.96C29.3251 60.96 29.4684 60.9133 29.5684 60.82C29.6684 60.7267 29.7184 60.5933 29.7184 60.42V60.17C29.7184 59.9967 29.6684 59.8633 29.5684 59.77C29.4684 59.6767 29.3251 59.63 29.1384 59.63H27.7484V60.96H29.1384ZM36.1232 64C35.8365 64 35.6165 63.92 35.4632 63.76C35.3099 63.5933 35.2165 63.3833 35.1832 63.13H35.1332C35.0332 63.4567 34.8499 63.7033 34.5832 63.87C34.3165 64.0367 33.9932 64.12 33.6132 64.12C33.0732 64.12 32.6565 63.98 32.3632 63.7C32.0765 63.42 31.9332 63.0433 31.9332 62.57C31.9332 62.05 32.1199 61.66 32.4932 61.4C32.8732 61.14 33.4265 61.01 34.1532 61.01H35.0932V60.57C35.0932 60.25 35.0065 60.0033 34.8332 59.83C34.6599 59.6567 34.3899 59.57 34.0232 59.57C33.7165 59.57 33.4665 59.6367 33.2732 59.77C33.0799 59.9033 32.9165 60.0733 32.7832 60.28L32.1332 59.69C32.3065 59.3967 32.5499 59.1567 32.8632 58.97C33.1765 58.7767 33.5865 58.68 34.0932 58.68C34.7665 58.68 35.2832 58.8367 35.6432 59.15C36.0032 59.4633 36.1832 59.9133 36.1832 60.5V63.11H36.7332V64H36.1232ZM33.9232 63.29C34.2632 63.29 34.5432 63.2167 34.7632 63.07C34.9832 62.9167 35.0932 62.7133 35.0932 62.46V61.71H34.1732C33.4199 61.71 33.0432 61.9433 33.0432 62.41V62.59C33.0432 62.8233 33.1199 63 33.2732 63.12C33.4332 63.2333 33.6499 63.29 33.9232 63.29ZM37.8015 58.8H38.8915V60.89H41.1315V58.8H42.2215V64H41.1315V61.78H38.8915V64H37.8015V58.8ZM44.858 59.69H43.198V58.8H47.608V59.69H45.948V64H44.858V59.69ZM52.3048 64C52.0182 64 51.7982 63.92 51.6448 63.76C51.4915 63.5933 51.3982 63.3833 51.3648 63.13H51.3148C51.2148 63.4567 51.0315 63.7033 50.7648 63.87C50.4982 64.0367 50.1748 64.12 49.7948 64.12C49.2548 64.12 48.8382 63.98 48.5448 63.7C48.2582 63.42 48.1148 63.0433 48.1148 62.57C48.1148 62.05 48.3015 61.66 48.6748 61.4C49.0548 61.14 49.6082 61.01 50.3348 61.01H51.2748V60.57C51.2748 60.25 51.1882 60.0033 51.0148 59.83C50.8415 59.6567 50.5715 59.57 50.2048 59.57C49.8982 59.57 49.6482 59.6367 49.4548 59.77C49.2615 59.9033 49.0982 60.0733 48.9648 60.28L48.3148 59.69C48.4882 59.3967 48.7315 59.1567 49.0448 58.97C49.3582 58.7767 49.7682 58.68 50.2748 58.68C50.9482 58.68 51.4648 58.8367 51.8248 59.15C52.1848 59.4633 52.3648 59.9133 52.3648 60.5V63.11H52.9148V64H52.3048ZM50.1048 63.29C50.4448 63.29 50.7248 63.2167 50.9448 63.07C51.1648 62.9167 51.2748 62.7133 51.2748 62.46V61.71H50.3548C49.6015 61.71 49.2248 61.9433 49.2248 62.41V62.59C49.2248 62.8233 49.3015 63 49.4548 63.12C49.6148 63.2333 49.8315 63.29 50.1048 63.29ZM53.5931 63.11H54.1731L54.7431 61.85C54.8165 61.6967 54.9031 61.58 55.0031 61.5C55.1098 61.42 55.2265 61.3667 55.3531 61.34V61.3C55.0998 61.2267 54.9031 61.0467 54.7631 60.76L54.2731 59.69H53.6931V58.8H54.2231C54.4565 58.8 54.6531 58.8533 54.8131 58.96C54.9798 59.0667 55.1198 59.24 55.2331 59.48L55.9031 60.9H56.7131V58.8H57.8031V60.9H58.6131L59.2831 59.48C59.3965 59.24 59.5331 59.0667 59.6931 58.96C59.8598 58.8533 60.0598 58.8 60.2931 58.8H60.8231V59.69H60.2431L59.7531 60.76C59.6131 61.0467 59.4165 61.2267 59.1631 61.3V61.34C59.2898 61.3667 59.4031 61.42 59.5031 61.5C59.6098 61.58 59.6998 61.6967 59.7731 61.85L60.3431 63.11H60.9231V64H60.3031C60.0765 64 59.8831 63.95 59.7231 63.85C59.5631 63.7433 59.4198 63.5533 59.2931 63.28L58.6131 61.78H57.8031V64H56.7131V61.78H55.9031L55.2231 63.28C55.0965 63.5533 54.9531 63.7433 54.7931 63.85C54.6331 63.95 54.4398 64 54.2131 64H53.5931V63.11ZM62.0886 58.8H63.1586V61.34L63.0586 62.57H63.0986L63.7186 61.46L65.5186 58.8H66.5086V64H65.4386V61.46L65.5386 60.23H65.4986L64.8786 61.34L63.0786 64H62.0886V58.8ZM69.1452 59.69H67.4852V58.8H71.8952V59.69H70.2352V64H69.1452V59.69ZM72.8796 58.8H73.9496V61.34L73.8496 62.57H73.8896L74.5096 61.46L76.3096 58.8H77.2996V64H76.2296V61.46L76.3296 60.23H76.2896L75.6696 61.34L73.8696 64H72.8796V58.8ZM82.8395 64.12C82.3195 64.12 81.8928 64.0333 81.5595 63.86C81.2261 63.6867 80.9395 63.44 80.6995 63.12L81.4095 62.47C81.5695 62.7033 81.7661 62.8867 81.9995 63.02C82.2395 63.1533 82.5195 63.22 82.8395 63.22C83.2128 63.22 83.4861 63.1533 83.6595 63.02C83.8395 62.8867 83.9295 62.7133 83.9295 62.5V62.38C83.9295 62.1667 83.8561 62.0067 83.7095 61.9C83.5695 61.7867 83.3661 61.73 83.0995 61.73H81.9795V60.93H82.9895C83.2561 60.93 83.4595 60.88 83.5995 60.78C83.7461 60.6733 83.8195 60.52 83.8195 60.32V60.21C83.8195 60.0167 83.7395 59.8633 83.5795 59.75C83.4195 59.6367 83.1661 59.58 82.8195 59.58C82.5061 59.58 82.2395 59.6433 82.0195 59.77C81.7995 59.8967 81.6228 60.0667 81.4895 60.28L80.8095 59.69C81.0095 59.3833 81.2761 59.14 81.6095 58.96C81.9495 58.7733 82.3761 58.68 82.8895 58.68C83.5828 58.68 84.0961 58.81 84.4295 59.07C84.7695 59.3233 84.9395 59.6633 84.9395 60.09C84.9395 60.4233 84.8528 60.6833 84.6795 60.87C84.5061 61.05 84.2461 61.1733 83.8995 61.24V61.29C84.2795 61.3367 84.5661 61.4633 84.7595 61.67C84.9595 61.8767 85.0595 62.1433 85.0595 62.47C85.0595 62.9833 84.8595 63.3867 84.4595 63.68C84.0661 63.9733 83.5261 64.12 82.8395 64.12ZM27.1521 71.8H31.4221V77H30.3321V72.69H28.2421V77H27.1521V71.8ZM32.9821 71.8H34.0721V72.66H34.1221C34.2355 72.3467 34.4188 72.1067 34.6721 71.94C34.9321 71.7667 35.2355 71.68 35.5821 71.68C36.2421 71.68 36.7521 71.92 37.1121 72.4C37.4721 72.8733 37.6521 73.54 37.6521 74.4C37.6521 75.26 37.4721 75.93 37.1121 76.41C36.7521 76.8833 36.2421 77.12 35.5821 77.12C35.2355 77.12 34.9321 77.0333 34.6721 76.86C34.4188 76.6867 34.2355 76.4467 34.1221 76.14H34.0721V79H32.9821V71.8ZM35.2521 76.18C35.6321 76.18 35.9355 76.06 36.1621 75.82C36.3888 75.5733 36.5021 75.25 36.5021 74.85V73.95C36.5021 73.55 36.3888 73.23 36.1621 72.99C35.9355 72.7433 35.6321 72.62 35.2521 72.62C34.9188 72.62 34.6388 72.7033 34.4121 72.87C34.1855 73.03 34.0721 73.2433 34.0721 73.51V75.29C34.0721 75.5567 34.1855 75.7733 34.4121 75.94C34.6388 76.1 34.9188 76.18 35.2521 76.18ZM38.9001 71.8H39.9701V74.34L39.8701 75.57H39.9101L40.5301 74.46L42.3301 71.8H43.3201V77H42.2501V74.46L42.3501 73.23H42.3101L41.6901 74.34L39.8901 77H38.9001V71.8ZM46.8867 77.12C46.5133 77.12 46.18 77.0567 45.8867 76.93C45.5933 76.8033 45.3467 76.6233 45.1467 76.39C44.9467 76.15 44.7933 75.8633 44.6867 75.53C44.58 75.19 44.5267 74.8133 44.5267 74.4C44.5267 73.9867 44.58 73.6133 44.6867 73.28C44.7933 72.94 44.9467 72.6533 45.1467 72.42C45.3467 72.18 45.5933 71.9967 45.8867 71.87C46.18 71.7433 46.5133 71.68 46.8867 71.68C47.4067 71.68 47.8333 71.7967 48.1667 72.03C48.5 72.2633 48.7433 72.5733 48.8967 72.96L47.9967 73.38C47.9233 73.14 47.7933 72.95 47.6067 72.81C47.4267 72.6633 47.1867 72.59 46.8867 72.59C46.4867 72.59 46.1833 72.7167 45.9767 72.97C45.7767 73.2167 45.6767 73.54 45.6767 73.94V74.87C45.6767 75.27 45.7767 75.5967 45.9767 75.85C46.1833 76.0967 46.4867 76.22 46.8867 76.22C47.2067 76.22 47.46 76.1433 47.6467 75.99C47.84 75.83 47.9933 75.62 48.1067 75.36L48.9367 75.8C48.7633 76.2267 48.5033 76.5533 48.1567 76.78C47.81 77.0067 47.3867 77.12 46.8867 77.12ZM51.1129 72.69H49.4529V71.8H53.8629V72.69H52.2029V77H51.1129V72.69ZM54.8474 71.8H55.9374V72.66H55.9874C56.1007 72.3467 56.284 72.1067 56.5374 71.94C56.7974 71.7667 57.1007 71.68 57.4474 71.68C58.1074 71.68 58.6174 71.92 58.9774 72.4C59.3374 72.8733 59.5174 73.54 59.5174 74.4C59.5174 75.26 59.3374 75.93 58.9774 76.41C58.6174 76.8833 58.1074 77.12 57.4474 77.12C57.1007 77.12 56.7974 77.0333 56.5374 76.86C56.284 76.6867 56.1007 76.4467 55.9874 76.14H55.9374V79H54.8474V71.8ZM57.1174 76.18C57.4974 76.18 57.8007 76.06 58.0274 75.82C58.254 75.5733 58.3674 75.25 58.3674 74.85V73.95C58.3674 73.55 58.254 73.23 58.0274 72.99C57.8007 72.7433 57.4974 72.62 57.1174 72.62C56.784 72.62 56.504 72.7033 56.2774 72.87C56.0507 73.03 55.9374 73.2433 55.9374 73.51V75.29C55.9374 75.5567 56.0507 75.7733 56.2774 75.94C56.504 76.1 56.784 76.18 57.1174 76.18ZM62.8054 77.12C62.4454 77.12 62.1154 77.0567 61.8154 76.93C61.522 76.8033 61.272 76.6233 61.0654 76.39C60.8587 76.15 60.6987 75.8633 60.5854 75.53C60.472 75.19 60.4154 74.8133 60.4154 74.4C60.4154 73.9867 60.472 73.6133 60.5854 73.28C60.6987 72.94 60.8587 72.6533 61.0654 72.42C61.272 72.18 61.522 71.9967 61.8154 71.87C62.1154 71.7433 62.4454 71.68 62.8054 71.68C63.1654 71.68 63.492 71.7433 63.7854 71.87C64.0854 71.9967 64.3387 72.18 64.5454 72.42C64.752 72.6533 64.912 72.94 65.0254 73.28C65.1387 73.6133 65.1954 73.9867 65.1954 74.4C65.1954 74.8133 65.1387 75.19 65.0254 75.53C64.912 75.8633 64.752 76.15 64.5454 76.39C64.3387 76.6233 64.0854 76.8033 63.7854 76.93C63.492 77.0567 63.1654 77.12 62.8054 77.12ZM62.8054 76.22C63.1787 76.22 63.4787 76.1067 63.7054 75.88C63.932 75.6467 64.0454 75.3 64.0454 74.84V73.96C64.0454 73.5 63.932 73.1567 63.7054 72.93C63.4787 72.6967 63.1787 72.58 62.8054 72.58C62.432 72.58 62.132 72.6967 61.9054 72.93C61.6787 73.1567 61.5654 73.5 61.5654 73.96V74.84C61.5654 75.3 61.6787 75.6467 61.9054 75.88C62.132 76.1067 62.432 76.22 62.8054 76.22ZM70.8699 77.12C70.2032 77.12 69.6665 76.9167 69.2599 76.51C68.8532 76.0967 68.6199 75.52 68.5599 74.78H67.4999V77H66.4099V71.8H67.4999V73.89H68.5699C68.6499 73.19 68.8899 72.6467 69.2899 72.26C69.6899 71.8733 70.2165 71.68 70.8699 71.68C71.2299 71.68 71.5532 71.7433 71.8399 71.87C72.1332 71.99 72.3799 72.1667 72.5799 72.4C72.7799 72.6333 72.9332 72.92 73.0399 73.26C73.1465 73.5933 73.1999 73.9733 73.1999 74.4C73.1999 74.82 73.1465 75.2 73.0399 75.54C72.9332 75.8733 72.7799 76.16 72.5799 76.4C72.3799 76.6333 72.1332 76.8133 71.8399 76.94C71.5532 77.06 71.2299 77.12 70.8699 77.12ZM70.8699 76.21C71.2432 76.21 71.5332 76.1 71.7399 75.88C71.9465 75.66 72.0499 75.3133 72.0499 74.84V73.96C72.0499 73.4867 71.9465 73.14 71.7399 72.92C71.5332 72.7 71.2432 72.59 70.8699 72.59C70.4965 72.59 70.2065 72.7 69.9999 72.92C69.7932 73.14 69.6899 73.4867 69.6899 73.96V74.84C69.6899 75.3133 69.7932 75.66 69.9999 75.88C70.2065 76.1 70.4965 76.21 70.8699 76.21Z" fill="#678F95"/>
<path d="M40.7403 24.6362C28.4117 25.9739 29.7816 11.2595 40.7403 12.5971C36.6308 -2.11734 59.918 -2.11734 58.5482 8.5841C72.2466 4.57106 72.2466 25.9739 59.918 24.6362M43.48 19.2855L50.3292 13.9348M50.3292 13.9348L57.1784 19.2855M50.3292 13.9348V34" stroke="#96B8BD" stroke-width="2" stroke-linecap="round" stroke-linejoin="round"/>
</svg>
