<svg width="12" height="14" viewBox="0 0 12 14" fill="none" xmlns="http://www.w3.org/2000/svg">
<path d="M8.24969 13.1271C8.27968 13.3604 8.20469 13.6093 8.03222 13.7726C7.96284 13.8447 7.88044 13.9019 7.78972 13.9409C7.699 13.9799 7.60175 14 7.50354 14C7.40533 14 7.30808 13.9799 7.21736 13.9409C7.12665 13.9019 7.04424 13.8447 6.97486 13.7726L3.96778 10.6541C3.88604 10.5712 3.82388 10.4697 3.78616 10.3578C3.74844 10.2458 3.73617 10.1263 3.75031 10.0086V6.02696L0.158309 1.25983C0.0365318 1.09771 -0.0184164 0.892191 0.00547091 0.688185C0.0293582 0.48418 0.130139 0.298273 0.285791 0.171088C0.428271 0.0622138 0.58575 0 0.750727 0H11.2493C11.4142 0 11.5717 0.0622138 11.7142 0.171088C11.8699 0.298273 11.9706 0.48418 11.9945 0.688185C12.0184 0.892191 11.9635 1.09771 11.8417 1.25983L8.24969 6.02696V13.1271ZM2.28051 1.55534L5.2501 5.49037V9.78312L6.7499 11.3385V5.48259L9.71948 1.55534H2.28051Z" fill="black"/>
</svg>
