<svg width="11" height="11" viewBox="0 0 12 12" fill="none" xmlns="http://www.w3.org/2000/svg">
<path fill-rule="evenodd" clip-rule="evenodd" d="M5.45135 0.866233C4.48256 0.969818 3.56285 1.34543 2.79852 1.94965C2.03419 2.55387 1.45644 3.36204 1.13203 4.28076C0.807623 5.19948 0.749806 6.19125 0.965262 7.14144C1.18072 8.09163 1.66065 8.96146 2.34959 9.65041C3.03854 10.3394 3.90837 10.8193 4.85856 11.0347C5.80875 11.2502 6.80052 11.1924 7.71924 10.868C8.63796 10.5436 9.44613 9.96581 10.0504 9.20148C10.6546 8.43715 11.0302 7.51744 11.1338 6.54865C10.7801 6.99799 10.3353 7.36728 9.82851 7.63218C9.32175 7.89707 8.76461 8.05156 8.1938 8.08545C7.623 8.11934 7.05149 8.03188 6.51694 7.82881C5.9824 7.62575 5.49696 7.3117 5.09263 6.90737C4.6883 6.50304 4.37425 6.0176 4.17119 5.48306C3.96812 4.94852 3.88066 4.37701 3.91455 3.8062C3.94844 3.23539 4.10293 2.67825 4.36782 2.17149C4.63272 1.66474 5.00201 1.21988 5.45135 0.866233ZM0 6C0 2.68633 2.68633 0 6 0C6.40019 0 6.6 0.318698 6.6346 0.572651C6.66754 0.817116 6.57712 1.128 6.29637 1.29767C5.87941 1.54932 5.52519 1.89255 5.26054 2.30138C4.9959 2.71021 4.82776 3.17391 4.76888 3.65735C4.71 4.14078 4.76192 4.63128 4.9207 5.09168C5.07948 5.55208 5.34096 5.97031 5.68532 6.31468C6.02969 6.65905 6.44792 6.92052 6.90832 7.0793C7.36872 7.23808 7.85922 7.29 8.34266 7.23112C8.82609 7.17224 9.28979 7.0041 9.69862 6.73946C10.1074 6.47481 10.4507 6.12059 10.7023 5.70363C10.872 5.42288 11.1829 5.33247 11.4274 5.3654C11.6813 5.4 12 5.59981 12 6C12 9.31367 9.31367 12 6 12C2.68633 12 0 9.31367 0 6Z" fill="white"/>
</svg>
