<svg width="10" height="7" viewBox="0 0 10 7" fill="none" xmlns="http://www.w3.org/2000/svg">
<path fill-rule="evenodd" clip-rule="evenodd" d="M6.19419 0.133302C6.27942 0.0479444 6.39495 0 6.51541 0C6.63587 0 6.75141 0.0479444 6.83664 0.133302L9.86706 3.17201C9.95219 3.25748 10 3.37333 10 3.49411C10 3.6149 9.95219 3.73075 9.86706 3.81622L6.83664 6.85493C6.79502 6.89971 6.74484 6.93563 6.68908 6.96054C6.63332 6.98545 6.57313 6.99885 6.51209 6.99993C6.45106 7.00101 6.39043 6.98975 6.33383 6.96683C6.27723 6.9439 6.22581 6.90978 6.18265 6.8665C6.13948 6.82322 6.10545 6.77166 6.08259 6.7149C6.05973 6.65815 6.0485 6.59735 6.04958 6.53615C6.05066 6.47495 6.06402 6.41459 6.08886 6.35868C6.11371 6.30277 6.14953 6.25245 6.19419 6.21072L8.44882 3.94992H3.48499C3.05285 3.94992 2.39404 4.08362 1.85644 4.47197C1.34248 4.84269 0.909127 5.46563 0.909127 6.53282C0.909127 6.65371 0.861236 6.76965 0.775989 6.85513C0.690741 6.94061 0.575121 6.98863 0.454564 6.98863C0.334006 6.98863 0.218386 6.94061 0.133139 6.85513C0.0478913 6.76965 0 6.65371 0 6.53282C0 5.16905 0.576993 4.27202 1.32551 3.73174C2.05038 3.20848 2.90739 3.03831 3.48499 3.03831H8.44882L6.19419 0.777509C6.10906 0.692045 6.06125 0.576194 6.06125 0.455405C6.06125 0.334616 6.10906 0.218766 6.19419 0.133302Z" fill="#678F95"/>
</svg>
